<svg width="25" height="24" viewBox="0 2 25 24" fill="none" xmlns="http://www.w3.org/2000/svg">
<path d="M23.1963 12.2332C23.1963 11.3699 23.1249 10.7399 22.9702 10.0865H12.9106V13.9832H18.8154C18.6964 14.9515 18.0535 16.4099 16.6249 17.3898L16.6049 17.5203L19.7855 19.935L20.0059 19.9565C22.0296 18.1249 23.1963 15.4298 23.1963 12.2332Z" fill="#4285F4"/>
<path d="M12.9098 22.5C15.8026 22.5 18.2311 21.5666 20.005 19.9567L16.624 17.3899C15.7193 18.0082 14.505 18.4399 12.9098 18.4399C10.0765 18.4399 7.67176 16.6083 6.81454 14.0766L6.68889 14.0871L3.38163 16.5954L3.33838 16.7132C5.10026 20.1433 8.7193 22.5 12.9098 22.5Z" fill="#34A853"/>
<path d="M6.81529 14.0767C6.5891 13.4233 6.4582 12.7233 6.4582 12C6.4582 11.2766 6.5891 10.5766 6.80339 9.92331L6.79739 9.78417L3.44868 7.23553L3.33912 7.28661C2.61296 8.70996 2.19629 10.3083 2.19629 12C2.19629 13.6916 2.61296 15.2899 3.33912 16.7133L6.81529 14.0767Z" fill="#FBBC05"/>
<path d="M12.9099 5.55997C14.9217 5.55997 16.2788 6.41163 17.0527 7.12335L20.0765 4.23C18.2194 2.53834 15.8027 1.5 12.9099 1.5C8.71933 1.5 5.10027 3.85665 3.33838 7.28662L6.80266 9.92332C7.67178 7.39166 10.0765 5.55997 12.9099 5.55997Z" fill="#EB4335"/>
</svg>
