<svg width="12" height="14" viewBox="0 0 12 14" fill="none" xmlns="http://www.w3.org/2000/svg">
<path d="M1.33333 13.479C0.966667 13.479 0.652778 13.3484 0.391667 13.0873C0.130556 12.8262 0 12.5123 0 12.1456V2.8123C0 2.44563 0.130556 2.13174 0.391667 1.87063C0.652778 1.60952 0.966667 1.47896 1.33333 1.47896H2V0.14563H3.33333V1.47896H8.66667V0.14563H10V1.47896H10.6667C11.0333 1.47896 11.3472 1.60952 11.6083 1.87063C11.8694 2.13174 12 2.44563 12 2.8123V12.1456C12 12.5123 11.8694 12.8262 11.6083 13.0873C11.3472 13.3484 11.0333 13.479 10.6667 13.479H1.33333ZM1.33333 12.1456H10.6667V5.47896H1.33333V12.1456ZM1.33333 4.14563H10.6667V2.8123H1.33333V4.14563ZM6 8.14563C5.81111 8.14563 5.65278 8.08174 5.525 7.95396C5.39722 7.82619 5.33333 7.66785 5.33333 7.47896C5.33333 7.29007 5.39722 7.13174 5.525 7.00396C5.65278 6.87619 5.81111 6.8123 6 6.8123C6.18889 6.8123 6.34722 6.87619 6.475 7.00396C6.60278 7.13174 6.66667 7.29007 6.66667 7.47896C6.66667 7.66785 6.60278 7.82619 6.475 7.95396C6.34722 8.08174 6.18889 8.14563 6 8.14563ZM3.33333 8.14563C3.14444 8.14563 2.98611 8.08174 2.85833 7.95396C2.73056 7.82619 2.66667 7.66785 2.66667 7.47896C2.66667 7.29007 2.73056 7.13174 2.85833 7.00396C2.98611 6.87619 3.14444 6.8123 3.33333 6.8123C3.52222 6.8123 3.68056 6.87619 3.80833 7.00396C3.93611 7.13174 4 7.29007 4 7.47896C4 7.66785 3.93611 7.82619 3.80833 7.95396C3.68056 8.08174 3.52222 8.14563 3.33333 8.14563ZM8.66667 8.14563C8.47778 8.14563 8.31944 8.08174 8.19167 7.95396C8.06389 7.82619 8 7.66785 8 7.47896C8 7.29007 8.06389 7.13174 8.19167 7.00396C8.31944 6.87619 8.47778 6.8123 8.66667 6.8123C8.85556 6.8123 9.01389 6.87619 9.14167 7.00396C9.26945 7.13174 9.33333 7.29007 9.33333 7.47896C9.33333 7.66785 9.26945 7.82619 9.14167 7.95396C9.01389 8.08174 8.85556 8.14563 8.66667 8.14563ZM6 10.8123C5.81111 10.8123 5.65278 10.7484 5.525 10.6206C5.39722 10.4929 5.33333 10.3345 5.33333 10.1456C5.33333 9.95674 5.39722 9.79841 5.525 9.67063C5.65278 9.54285 5.81111 9.47896 6 9.47896C6.18889 9.47896 6.34722 9.54285 6.475 9.67063C6.60278 9.79841 6.66667 9.95674 6.66667 10.1456C6.66667 10.3345 6.60278 10.4929 6.475 10.6206C6.34722 10.7484 6.18889 10.8123 6 10.8123ZM3.33333 10.8123C3.14444 10.8123 2.98611 10.7484 2.85833 10.6206C2.73056 10.4929 2.66667 10.3345 2.66667 10.1456C2.66667 9.95674 2.73056 9.79841 2.85833 9.67063C2.98611 9.54285 3.14444 9.47896 3.33333 9.47896C3.52222 9.47896 3.68056 9.54285 3.80833 9.67063C3.93611 9.79841 4 9.95674 4 10.1456C4 10.3345 3.93611 10.4929 3.80833 10.6206C3.68056 10.7484 3.52222 10.8123 3.33333 10.8123ZM8.66667 10.8123C8.47778 10.8123 8.31944 10.7484 8.19167 10.6206C8.06389 10.4929 8 10.3345 8 10.1456C8 9.95674 8.06389 9.79841 8.19167 9.67063C8.31944 9.54285 8.47778 9.47896 8.66667 9.47896C8.85556 9.47896 9.01389 9.54285 9.14167 9.67063C9.26945 9.79841 9.33333 9.95674 9.33333 10.1456C9.33333 10.3345 9.26945 10.4929 9.14167 10.6206C9.01389 10.7484 8.85556 10.8123 8.66667 10.8123Z" fill="#AAAAAA"/>
</svg>
