<svg width="11" height="4" viewBox="0 0 11 4" fill="none" xmlns="http://www.w3.org/2000/svg">
<path d="M1.38143 3.56999C1.01476 3.56999 0.700874 3.43943 0.439762 3.17832C0.178651 2.91721 0.0480957 2.60332 0.0480957 2.23665C0.0480957 1.86999 0.178651 1.5561 0.439762 1.29499C0.700874 1.03388 1.01476 0.90332 1.38143 0.90332C1.7481 0.90332 2.06198 1.03388 2.3231 1.29499C2.58421 1.5561 2.71476 1.86999 2.71476 2.23665C2.71476 2.60332 2.58421 2.91721 2.3231 3.17832C2.06198 3.43943 1.7481 3.56999 1.38143 3.56999ZM5.38143 3.56999C5.01476 3.56999 4.70087 3.43943 4.43976 3.17832C4.17865 2.91721 4.0481 2.60332 4.0481 2.23665C4.0481 1.86999 4.17865 1.5561 4.43976 1.29499C4.70087 1.03388 5.01476 0.90332 5.38143 0.90332C5.7481 0.90332 6.06199 1.03388 6.3231 1.29499C6.58421 1.5561 6.71476 1.86999 6.71476 2.23665C6.71476 2.60332 6.58421 2.91721 6.3231 3.17832C6.06199 3.43943 5.7481 3.56999 5.38143 3.56999ZM9.38143 3.56999C9.01476 3.56999 8.70087 3.43943 8.43976 3.17832C8.17865 2.91721 8.0481 2.60332 8.0481 2.23665C8.0481 1.86999 8.17865 1.5561 8.43976 1.29499C8.70087 1.03388 9.01476 0.90332 9.38143 0.90332C9.7481 0.90332 10.062 1.03388 10.3231 1.29499C10.5842 1.5561 10.7148 1.86999 10.7148 2.23665C10.7148 2.60332 10.5842 2.91721 10.3231 3.17832C10.062 3.43943 9.7481 3.56999 9.38143 3.56999Z" fill="#d9d9d9"/>
</svg>
