<svg width="17" height="17" viewBox="0 0 17 17" fill="none" xmlns="http://www.w3.org/2000/svg">
<mask id="mask0_1826_3009" style="mask-type:alpha" maskUnits="userSpaceOnUse" x="0" y="0" width="17" height="17">
<rect x="0.969727" y="0.583984" width="16" height="16" fill="#D9D9D9"/>
</mask>
<g mask="url(#mask0_1826_3009)">
<path d="M14.0364 14.584L9.83639 10.384C9.50306 10.6507 9.11973 10.8618 8.68639 11.0173C8.25306 11.1729 7.79195 11.2507 7.30306 11.2507C6.09195 11.2507 5.06695 10.8312 4.22806 9.99232C3.38917 9.15343 2.96973 8.12843 2.96973 6.91732C2.96973 5.70621 3.38917 4.68121 4.22806 3.84232C5.06695 3.00343 6.09195 2.58398 7.30306 2.58398C8.51417 2.58398 9.53917 3.00343 10.3781 3.84232C11.2169 4.68121 11.6364 5.70621 11.6364 6.91732C11.6364 7.40621 11.5586 7.86732 11.4031 8.30065C11.2475 8.73398 11.0364 9.11732 10.7697 9.45065L14.9697 13.6507L14.0364 14.584ZM7.30306 9.91732C8.13639 9.91732 8.84473 9.62565 9.42806 9.04232C10.0114 8.45898 10.3031 7.75065 10.3031 6.91732C10.3031 6.08398 10.0114 5.37565 9.42806 4.79232C8.84473 4.20898 8.13639 3.91732 7.30306 3.91732C6.46973 3.91732 5.76139 4.20898 5.17806 4.79232C4.59473 5.37565 4.30306 6.08398 4.30306 6.91732C4.30306 7.75065 4.59473 8.45898 5.17806 9.04232C5.76139 9.62565 6.46973 9.91732 7.30306 9.91732Z" fill="#F3F3F3"/>
</g>
</svg>
