<svg width="14" height="14" viewBox="0 0 14 14" fill="none" xmlns="http://www.w3.org/2000/svg">
<path d="M9.83333 13.6667V11.6667H7.83333V10.3333H9.83333V8.33333H11.1667V10.3333H13.1667V11.6667H11.1667V13.6667H9.83333ZM1.83333 12.3333C1.46667 12.3333 1.15278 12.2028 0.891667 11.9417C0.630556 11.6806 0.5 11.3667 0.5 11V1.66667C0.5 1.3 0.630556 0.986112 0.891667 0.725001C1.15278 0.46389 1.46667 0.333334 1.83333 0.333334H11.1667C11.5333 0.333334 11.8472 0.46389 12.1083 0.725001C12.3694 0.986112 12.5 1.3 12.5 1.66667V7.55C12.3 7.42778 12.0889 7.32778 11.8667 7.25C11.6444 7.17222 11.4111 7.11111 11.1667 7.06667V1.66667H1.83333V11H6.5C6.5 11.2333 6.51667 11.4611 6.55 11.6833C6.58333 11.9056 6.63889 12.1222 6.71667 12.3333H1.83333ZM3.83333 9.66667C4.02222 9.66667 4.18056 9.60278 4.30833 9.475C4.43611 9.34722 4.5 9.18889 4.5 9C4.5 8.81111 4.43611 8.65278 4.30833 8.525C4.18056 8.39722 4.02222 8.33333 3.83333 8.33333C3.64444 8.33333 3.48611 8.39722 3.35833 8.525C3.23056 8.65278 3.16667 8.81111 3.16667 9C3.16667 9.18889 3.23056 9.34722 3.35833 9.475C3.48611 9.60278 3.64444 9.66667 3.83333 9.66667ZM3.83333 7C4.02222 7 4.18056 6.93611 4.30833 6.80833C4.43611 6.68056 4.5 6.52222 4.5 6.33333C4.5 6.14444 4.43611 5.98611 4.30833 5.85833C4.18056 5.73056 4.02222 5.66667 3.83333 5.66667C3.64444 5.66667 3.48611 5.73056 3.35833 5.85833C3.23056 5.98611 3.16667 6.14444 3.16667 6.33333C3.16667 6.52222 3.23056 6.68056 3.35833 6.80833C3.48611 6.93611 3.64444 7 3.83333 7ZM3.83333 4.33333C4.02222 4.33333 4.18056 4.26944 4.30833 4.14167C4.43611 4.01389 4.5 3.85556 4.5 3.66667C4.5 3.47778 4.43611 3.31944 4.30833 3.19167C4.18056 3.06389 4.02222 3 3.83333 3C3.64444 3 3.48611 3.06389 3.35833 3.19167C3.23056 3.31944 3.16667 3.47778 3.16667 3.66667C3.16667 3.85556 3.23056 4.01389 3.35833 4.14167C3.48611 4.26944 3.64444 4.33333 3.83333 4.33333ZM5.83333 7H9.83333V5.66667H5.83333V7ZM5.83333 4.33333H9.83333V3H5.83333V4.33333ZM5.83333 9.66667H6.73333C6.82222 9.41111 6.93333 9.17222 7.06667 8.95C7.2 8.72778 7.35556 8.52222 7.53333 8.33333H5.83333V9.66667Z" fill="#BCBCBC"/>
</svg>
