<svg width="17" height="17" viewBox="0 0 17 17" fill="none" xmlns="http://www.w3.org/2000/svg">
<mask id="mask0_1826_3027" style="mask-type:alpha" maskUnits="userSpaceOnUse" x="0" y="0" width="17" height="17">
<rect x="0.416992" y="0.458984" width="16" height="16" fill="#D9D9D9"/>
</mask>
<g mask="url(#mask0_1826_3027)">
<path d="M7.75016 11.126V5.69264L6.01683 7.42598L5.0835 6.45931L8.41683 3.12598L11.7502 6.45931L10.8168 7.42598L9.0835 5.69264V11.126H7.75016ZM4.41683 13.7926C4.05016 13.7926 3.73627 13.6621 3.47516 13.401C3.21405 13.1399 3.0835 12.826 3.0835 12.4593V10.4593H4.41683V12.4593H12.4168V10.4593H13.7502V12.4593C13.7502 12.826 13.6196 13.1399 13.3585 13.401C13.0974 13.6621 12.7835 13.7926 12.4168 13.7926H4.41683Z" fill="#E1DCDC"/>
</g>
</svg>
