<svg width="16" height="10" viewBox="0 0 16 10" fill="none" xmlns="http://www.w3.org/2000/svg">
<path d="M1.99984 9.97901C1.63317 9.97901 1.31928 9.84845 1.05817 9.58734C0.797059 9.32623 0.666504 9.01234 0.666504 8.64568V1.97901C0.666504 1.61234 0.797059 1.29845 1.05817 1.03734C1.31928 0.776231 1.63317 0.645676 1.99984 0.645676H8.6665C9.03317 0.645676 9.34706 0.776231 9.60817 1.03734C9.86928 1.29845 9.99984 1.61234 9.99984 1.97901V8.64568C9.99984 9.01234 9.86928 9.32623 9.60817 9.58734C9.34706 9.84845 9.03317 9.97901 8.6665 9.97901H1.99984ZM11.9998 4.64568C11.8109 4.64568 11.6526 4.58179 11.5248 4.45401C11.3971 4.32623 11.3332 4.1679 11.3332 3.97901V1.31234C11.3332 1.12345 11.3971 0.96512 11.5248 0.837342C11.6526 0.709565 11.8109 0.645676 11.9998 0.645676H14.6665C14.8554 0.645676 15.0137 0.709565 15.1415 0.837342C15.2693 0.96512 15.3332 1.12345 15.3332 1.31234V3.97901C15.3332 4.1679 15.2693 4.32623 15.1415 4.45401C15.0137 4.58179 14.8554 4.64568 14.6665 4.64568H11.9998ZM12.6665 3.31234H13.9998V1.97901H12.6665V3.31234ZM1.99984 8.64568H8.6665V1.97901H1.99984V8.64568ZM2.6665 7.31234H7.99984L6.24984 4.97901L4.99984 6.64568L4.08317 5.42901L2.6665 7.31234ZM11.9998 9.97901C11.8109 9.97901 11.6526 9.91512 11.5248 9.78734C11.3971 9.65956 11.3332 9.50123 11.3332 9.31234V6.64568C11.3332 6.45679 11.3971 6.29845 11.5248 6.17068C11.6526 6.0429 11.8109 5.97901 11.9998 5.97901H14.6665C14.8554 5.97901 15.0137 6.0429 15.1415 6.17068C15.2693 6.29845 15.3332 6.45679 15.3332 6.64568V9.31234C15.3332 9.50123 15.2693 9.65956 15.1415 9.78734C15.0137 9.91512 14.8554 9.97901 14.6665 9.97901H11.9998ZM12.6665 8.64568H13.9998V7.31234H12.6665V8.64568Z" fill="#E1DCDC"/>
</svg>
