<svg width="12" height="13" viewBox="0 0 12 13" fill="none" xmlns="http://www.w3.org/2000/svg">
<path d="M0 11.0726V1.73922C0 1.37255 0.130556 1.05866 0.391667 0.79755C0.652778 0.536439 0.966667 0.405884 1.33333 0.405884H10.6667C11.0333 0.405884 11.3472 0.536439 11.6083 0.79755C11.8694 1.05866 12 1.37255 12 1.73922V11.0726C12 11.4392 11.8694 11.7531 11.6083 12.0142C11.3472 12.2753 11.0333 12.4059 10.6667 12.4059H1.33333C0.966667 12.4059 0.652778 12.2753 0.391667 12.0142C0.130556 11.7531 0 11.4392 0 11.0726ZM1.33333 4.40588H10.6667V1.73922H1.33333V4.40588ZM4.88333 7.73922H7.11667V5.73922H4.88333V7.73922ZM4.88333 11.0726H7.11667V9.07255H4.88333V11.0726ZM1.33333 7.73922H3.55V5.73922H1.33333V7.73922ZM8.45 7.73922H10.6667V5.73922H8.45V7.73922ZM1.33333 11.0726H3.55V9.07255H1.33333V11.0726ZM8.45 11.0726H10.6667V9.07255H8.45V11.0726Z" fill="#D9D9D9"/>
</svg>
