<svg width="17" height="17" viewBox="0 0 17 17" fill="none" xmlns="http://www.w3.org/2000/svg">
<mask id="mask0_1826_3037" style="mask-type:alpha" maskUnits="userSpaceOnUse" x="0" y="0" width="17" height="17">
<rect x="0.416992" y="0.458984" width="16" height="16" fill="#D9D9D9"/>
</mask>
<g mask="url(#mask0_1826_3037)">
<path d="M5.0835 14.459C4.71683 14.459 4.40294 14.3284 4.14183 14.0673C3.88072 13.8062 3.75016 13.4923 3.75016 13.1257V4.45898H3.0835V3.12565H6.41683V2.45898H10.4168V3.12565H13.7502V4.45898H13.0835V13.1257C13.0835 13.4923 12.9529 13.8062 12.6918 14.0673C12.4307 14.3284 12.1168 14.459 11.7502 14.459H5.0835ZM11.7502 4.45898H5.0835V13.1257H11.7502V4.45898ZM6.41683 11.7923H7.75016V5.79232H6.41683V11.7923ZM9.0835 11.7923H10.4168V5.79232H9.0835V11.7923Z" fill="#E1DCDC"/>
</g>
</svg>
