<svg width="13" height="13" viewBox="0 0 13 13" fill="none" xmlns="http://www.w3.org/2000/svg">
<path d="M11.5846 12.4528H2.2513C1.88464 12.4528 1.57075 12.3222 1.30964 12.0611C1.04852 11.8 0.917969 11.4861 0.917969 11.1194V1.78609C0.917969 1.41943 1.04852 1.10554 1.30964 0.844425C1.57075 0.583314 1.88464 0.452759 2.2513 0.452759H11.5846C11.9513 0.452759 12.2652 0.583314 12.5263 0.844425C12.7874 1.10554 12.918 1.41943 12.918 1.78609V11.1194C12.918 11.4861 12.7874 11.8 12.5263 12.0611C12.2652 12.3222 11.9513 12.4528 11.5846 12.4528ZM2.2513 3.78609H11.5846V1.78609H2.2513V3.78609ZM3.91797 5.11943H2.2513V11.1194H3.91797V5.11943ZM9.91797 5.11943V11.1194H11.5846V5.11943H9.91797ZM8.58464 5.11943H5.2513V11.1194H8.58464V5.11943Z" fill="#E1DCDC"/>
</svg>
