<svg width="14" height="14" viewBox="0 0 14 14" fill="none" xmlns="http://www.w3.org/2000/svg">
<path d="M3.66684 12.6456V5.29562C3.66684 4.92895 3.80017 4.61784 4.06684 4.36228C4.33351 4.10673 4.65017 3.97895 5.01684 3.97895H12.3335C12.7002 3.97895 13.0141 4.1095 13.2752 4.37062C13.5363 4.63173 13.6668 4.94562 13.6668 5.31228V10.6456L10.3335 13.9789H5.00017C4.6335 13.9789 4.31962 13.8484 4.05851 13.5873C3.79739 13.3262 3.66684 13.0123 3.66684 12.6456ZM0.350172 3.47895C0.283505 3.11228 0.355727 2.78173 0.566839 2.48728C0.77795 2.19284 1.06684 2.01228 1.43351 1.94562L8.66684 0.662283C9.03351 0.595616 9.36406 0.667838 9.6585 0.878949C9.95295 1.09006 10.1335 1.37895 10.2002 1.74562L10.3668 2.64562H9.00017L8.8835 1.97895L1.66684 3.26228L2.33351 7.02895V11.6789C2.15573 11.5789 2.00295 11.4456 1.87517 11.2789C1.74739 11.1123 1.66684 10.9234 1.63351 10.7123L0.350172 3.47895ZM5.00017 5.31228V12.6456H9.66684V9.97895H12.3335V5.31228H5.00017Z" fill="#D9D9D9"/>
</svg>
