<svg width="11" height="14" viewBox="0 0 11 14" fill="none" xmlns="http://www.w3.org/2000/svg">
<path d="M7.66699 6.14563V2.8123H9.00033V6.14563H7.66699ZM4.33366 10.7456C3.94477 10.6345 3.62533 10.4179 3.37533 10.0956C3.12533 9.77341 3.00033 9.40119 3.00033 8.97896V2.8123H4.33366V10.7456ZM4.83366 13.479C3.6781 13.479 2.69477 13.0734 1.88366 12.2623C1.07255 11.4512 0.666992 10.4679 0.666992 9.3123V3.14563C0.666992 2.3123 0.958659 1.60396 1.54199 1.02063C2.12533 0.437297 2.83366 0.14563 3.66699 0.14563C4.50033 0.14563 5.20866 0.437297 5.79199 1.02063C6.37533 1.60396 6.66699 2.3123 6.66699 3.14563V8.14563H5.33366V3.14563C5.32255 2.67896 5.15866 2.28452 4.84199 1.9623C4.52533 1.64007 4.13366 1.47896 3.66699 1.47896C3.20033 1.47896 2.80588 1.64007 2.48366 1.9623C2.16144 2.28452 2.00033 2.67896 2.00033 3.14563V9.3123C1.98921 10.1012 2.26144 10.7706 2.81699 11.3206C3.37255 11.8706 4.04477 12.1456 4.83366 12.1456C5.11144 12.1456 5.37533 12.1095 5.62533 12.0373C5.87533 11.9651 6.11144 11.8567 6.33366 11.7123V13.1956C6.10033 13.2845 5.85866 13.354 5.60866 13.404C5.35866 13.454 5.10033 13.479 4.83366 13.479ZM7.66699 12.8123V10.8123H5.66699V9.47896H7.66699V7.47896H9.00033V9.47896H11.0003V10.8123H9.00033V12.8123H7.66699Z" fill="#AAAAAA"/>
</svg>
