<svg width="13" height="15" viewBox="0 0 13 15" fill="none" xmlns="http://www.w3.org/2000/svg">
<path d="M2.2513 14.0726C1.88464 14.0726 1.57075 13.942 1.30964 13.6809C1.04852 13.4198 0.917969 13.1059 0.917969 12.7392V3.4059C0.917969 3.03923 1.04852 2.72534 1.30964 2.46423C1.57075 2.20312 1.88464 2.07257 2.2513 2.07257H2.91797V0.739233H4.2513V2.07257H9.58464V0.739233H10.918V2.07257H11.5846C11.9513 2.07257 12.2652 2.20312 12.5263 2.46423C12.7874 2.72534 12.918 3.03923 12.918 3.4059V12.7392C12.918 13.1059 12.7874 13.4198 12.5263 13.6809C12.2652 13.942 11.9513 14.0726 11.5846 14.0726H2.2513ZM2.2513 12.7392H11.5846V6.07257H2.2513V12.7392ZM2.2513 4.73923H11.5846V3.4059H2.2513V4.73923ZM6.91797 8.73923C6.72908 8.73923 6.57075 8.67534 6.44297 8.54757C6.31519 8.41979 6.2513 8.26145 6.2513 8.07257C6.2513 7.88368 6.31519 7.72534 6.44297 7.59757C6.57075 7.46979 6.72908 7.4059 6.91797 7.4059C7.10686 7.4059 7.26519 7.46979 7.39297 7.59757C7.52075 7.72534 7.58464 7.88368 7.58464 8.07257C7.58464 8.26145 7.52075 8.41979 7.39297 8.54757C7.26519 8.67534 7.10686 8.73923 6.91797 8.73923ZM4.2513 8.73923C4.06241 8.73923 3.90408 8.67534 3.7763 8.54757C3.64852 8.41979 3.58464 8.26145 3.58464 8.07257C3.58464 7.88368 3.64852 7.72534 3.7763 7.59757C3.90408 7.46979 4.06241 7.4059 4.2513 7.4059C4.44019 7.4059 4.59852 7.46979 4.7263 7.59757C4.85408 7.72534 4.91797 7.88368 4.91797 8.07257C4.91797 8.26145 4.85408 8.41979 4.7263 8.54757C4.59852 8.67534 4.44019 8.73923 4.2513 8.73923ZM9.58464 8.73923C9.39575 8.73923 9.23741 8.67534 9.10964 8.54757C8.98186 8.41979 8.91797 8.26145 8.91797 8.07257C8.91797 7.88368 8.98186 7.72534 9.10964 7.59757C9.23741 7.46979 9.39575 7.4059 9.58464 7.4059C9.77352 7.4059 9.93186 7.46979 10.0596 7.59757C10.1874 7.72534 10.2513 7.88368 10.2513 8.07257C10.2513 8.26145 10.1874 8.41979 10.0596 8.54757C9.93186 8.67534 9.77352 8.73923 9.58464 8.73923ZM6.91797 11.4059C6.72908 11.4059 6.57075 11.342 6.44297 11.2142C6.31519 11.0865 6.2513 10.9281 6.2513 10.7392C6.2513 10.5503 6.31519 10.392 6.44297 10.2642C6.57075 10.1365 6.72908 10.0726 6.91797 10.0726C7.10686 10.0726 7.26519 10.1365 7.39297 10.2642C7.52075 10.392 7.58464 10.5503 7.58464 10.7392C7.58464 10.9281 7.52075 11.0865 7.39297 11.2142C7.26519 11.342 7.10686 11.4059 6.91797 11.4059ZM4.2513 11.4059C4.06241 11.4059 3.90408 11.342 3.7763 11.2142C3.64852 11.0865 3.58464 10.9281 3.58464 10.7392C3.58464 10.5503 3.64852 10.392 3.7763 10.2642C3.90408 10.1365 4.06241 10.0726 4.2513 10.0726C4.44019 10.0726 4.59852 10.1365 4.7263 10.2642C4.85408 10.392 4.91797 10.5503 4.91797 10.7392C4.91797 10.9281 4.85408 11.0865 4.7263 11.2142C4.59852 11.342 4.44019 11.4059 4.2513 11.4059ZM9.58464 11.4059C9.39575 11.4059 9.23741 11.342 9.10964 11.2142C8.98186 11.0865 8.91797 10.9281 8.91797 10.7392C8.91797 10.5503 8.98186 10.392 9.10964 10.2642C9.23741 10.1365 9.39575 10.0726 9.58464 10.0726C9.77352 10.0726 9.93186 10.1365 10.0596 10.2642C10.1874 10.392 10.2513 10.5503 10.2513 10.7392C10.2513 10.9281 10.1874 11.0865 10.0596 11.2142C9.93186 11.342 9.77352 11.4059 9.58464 11.4059Z" fill="#E1DCDC"/>
</svg>
