<svg width="14" height="14" viewBox="0 0 14 14" fill="none" xmlns="http://www.w3.org/2000/svg">
<path d="M4.83639 13.584H2.30306C1.93639 13.584 1.6225 13.4534 1.36139 13.1923C1.10028 12.9312 0.969727 12.6173 0.969727 12.2507V9.71732C1.50306 9.71732 1.96973 9.54787 2.36973 9.20898C2.76973 8.8701 2.96973 8.43954 2.96973 7.91732C2.96973 7.3951 2.76973 6.96454 2.36973 6.62565C1.96973 6.28676 1.50306 6.11732 0.969727 6.11732V3.58398C0.969727 3.21732 1.10028 2.90343 1.36139 2.64232C1.6225 2.38121 1.93639 2.25065 2.30306 2.25065H4.96973C4.96973 1.78398 5.13084 1.38954 5.45306 1.06732C5.77528 0.745095 6.16973 0.583984 6.63639 0.583984C7.10306 0.583984 7.4975 0.745095 7.81973 1.06732C8.14195 1.38954 8.30306 1.78398 8.30306 2.25065H10.9697C11.3364 2.25065 11.6503 2.38121 11.9114 2.64232C12.1725 2.90343 12.3031 3.21732 12.3031 3.58398V6.25065C12.7697 6.25065 13.1642 6.41176 13.4864 6.73398C13.8086 7.05621 13.9697 7.45065 13.9697 7.91732C13.9697 8.38398 13.8086 8.77843 13.4864 9.10065C13.1642 9.42287 12.7697 9.58398 12.3031 9.58398V12.2507C12.3031 12.6173 12.1725 12.9312 11.9114 13.1923C11.6503 13.4534 11.3364 13.584 10.9697 13.584H8.43639C8.43639 13.0284 8.26139 12.5562 7.91139 12.1673C7.56139 11.7784 7.13639 11.584 6.63639 11.584C6.13639 11.584 5.71139 11.7784 5.36139 12.1673C5.01139 12.5562 4.83639 13.0284 4.83639 13.584ZM2.30306 12.2507H3.71973C3.98639 11.5173 4.41417 11.0007 5.00306 10.7007C5.59195 10.4007 6.13639 10.2507 6.63639 10.2507C7.13639 10.2507 7.68084 10.4007 8.26973 10.7007C8.85862 11.0007 9.28639 11.5173 9.55306 12.2507H10.9697V8.25065H12.3031C12.3919 8.25065 12.4697 8.21732 12.5364 8.15065C12.6031 8.08398 12.6364 8.00621 12.6364 7.91732C12.6364 7.82843 12.6031 7.75065 12.5364 7.68398C12.4697 7.61732 12.3919 7.58398 12.3031 7.58398H10.9697V3.58398H6.96973V2.25065C6.96973 2.16176 6.93639 2.08398 6.86973 2.01732C6.80306 1.95065 6.72528 1.91732 6.63639 1.91732C6.5475 1.91732 6.46973 1.95065 6.40306 2.01732C6.33639 2.08398 6.30306 2.16176 6.30306 2.25065V3.58398H2.30306V5.05065C2.90306 5.27287 3.38639 5.6451 3.75306 6.16732C4.11973 6.68954 4.30306 7.27287 4.30306 7.91732C4.30306 8.55065 4.11973 9.12843 3.75306 9.65065C3.38639 10.1729 2.90306 10.5507 2.30306 10.784V12.2507Z" fill="#E1DCDC"/>
</svg>
