<svg width="15" height="15" viewBox="0 0 15 15" fill="none" xmlns="http://www.w3.org/2000/svg">
<path d="M5.58346 14.1253L5.3168 11.992C5.17235 11.9364 5.03624 11.8698 4.90846 11.792C4.78069 11.7142 4.65569 11.6309 4.53346 11.542L2.55013 12.3753L0.716797 9.20866L2.43346 7.90866C2.42235 7.83088 2.4168 7.75588 2.4168 7.68366V7.23366C2.4168 7.16144 2.42235 7.08644 2.43346 7.00866L0.716797 5.70866L2.55013 2.54199L4.53346 3.37533C4.65569 3.28644 4.78346 3.2031 4.9168 3.12533C5.05013 3.04755 5.18346 2.98088 5.3168 2.92533L5.58346 0.791992H9.25013L9.5168 2.92533C9.66124 2.98088 9.79735 3.04755 9.92513 3.12533C10.0529 3.2031 10.1779 3.28644 10.3001 3.37533L12.2835 2.54199L14.1168 5.70866L12.4001 7.00866C12.4112 7.08644 12.4168 7.16144 12.4168 7.23366V7.68366C12.4168 7.75588 12.4057 7.83088 12.3835 7.90866L14.1001 9.20866L12.2668 12.3753L10.3001 11.542C10.1779 11.6309 10.0501 11.7142 9.9168 11.792C9.78346 11.8698 9.65013 11.9364 9.5168 11.992L9.25013 14.1253H5.58346ZM6.75013 12.792H8.0668L8.30013 11.0253C8.64457 10.9364 8.96402 10.8059 9.25846 10.6337C9.55291 10.4614 9.82235 10.2531 10.0668 10.0087L11.7168 10.692L12.3668 9.55866L10.9335 8.47533C10.989 8.31977 11.0279 8.15588 11.0501 7.98366C11.0724 7.81144 11.0835 7.63644 11.0835 7.45866C11.0835 7.28088 11.0724 7.10588 11.0501 6.93366C11.0279 6.76144 10.989 6.59755 10.9335 6.44199L12.3668 5.35866L11.7168 4.22533L10.0668 4.92533C9.82235 4.66977 9.55291 4.45588 9.25846 4.28366C8.96402 4.11144 8.64457 3.98088 8.30013 3.89199L8.08346 2.12533H6.7668L6.53346 3.89199C6.18902 3.98088 5.86957 4.11144 5.57513 4.28366C5.28069 4.45588 5.01124 4.66421 4.7668 4.90866L3.1168 4.22533L2.4668 5.35866L3.90013 6.42532C3.84457 6.59199 3.80569 6.75866 3.78346 6.92532C3.76124 7.09199 3.75013 7.26977 3.75013 7.45866C3.75013 7.63644 3.76124 7.80866 3.78346 7.97533C3.80569 8.14199 3.84457 8.30866 3.90013 8.47533L2.4668 9.55866L3.1168 10.692L4.7668 9.99199C5.01124 10.2475 5.28069 10.4614 5.57513 10.6337C5.86957 10.8059 6.18902 10.9364 6.53346 11.0253L6.75013 12.792ZM7.45013 9.79199C8.09457 9.79199 8.64457 9.56421 9.10013 9.10866C9.55569 8.6531 9.78346 8.1031 9.78346 7.45866C9.78346 6.81421 9.55569 6.26421 9.10013 5.80866C8.64457 5.3531 8.09457 5.12533 7.45013 5.12533C6.79458 5.12533 6.2418 5.3531 5.7918 5.80866C5.3418 6.26421 5.1168 6.81421 5.1168 7.45866C5.1168 8.1031 5.3418 8.6531 5.7918 9.10866C6.2418 9.56421 6.79458 9.79199 7.45013 9.79199Z" fill="#D9D9D9"/>
</svg>
