<svg width="17" height="17" viewBox="0 0 17 17" fill="none" xmlns="http://www.w3.org/2000/svg">
<mask id="mask0_1826_3014" style="mask-type:alpha" maskUnits="userSpaceOnUse" x="0" y="0" width="17" height="17">
<rect x="0.969727" y="0.583984" width="16" height="16" fill="#D9D9D9"/>
</mask>
<g mask="url(#mask0_1826_3014)">
<path d="M8.30322 11.917H9.63656V9.25033H12.3032V7.91699H9.63656V5.25033H8.30322V7.91699H5.63656V9.25033H8.30322V11.917ZM8.96989 15.2503C8.04767 15.2503 7.181 15.0753 6.36989 14.7253C5.55878 14.3753 4.85322 13.9003 4.25322 13.3003C3.65322 12.7003 3.17822 11.9948 2.82822 11.1837C2.47822 10.3725 2.30322 9.50588 2.30322 8.58366C2.30322 7.66144 2.47822 6.79477 2.82822 5.98366C3.17822 5.17255 3.65322 4.46699 4.25322 3.86699C4.85322 3.26699 5.55878 2.79199 6.36989 2.44199C7.181 2.09199 8.04767 1.91699 8.96989 1.91699C9.89211 1.91699 10.7588 2.09199 11.5699 2.44199C12.381 2.79199 13.0866 3.26699 13.6866 3.86699C14.2866 4.46699 14.7616 5.17255 15.1116 5.98366C15.4616 6.79477 15.6366 7.66144 15.6366 8.58366C15.6366 9.50588 15.4616 10.3725 15.1116 11.1837C14.7616 11.9948 14.2866 12.7003 13.6866 13.3003C13.0866 13.9003 12.381 14.3753 11.5699 14.7253C10.7588 15.0753 9.89211 15.2503 8.96989 15.2503ZM8.96989 13.917C10.4588 13.917 11.7199 13.4003 12.7532 12.367C13.7866 11.3337 14.3032 10.0725 14.3032 8.58366C14.3032 7.09477 13.7866 5.83366 12.7532 4.80033C11.7199 3.76699 10.4588 3.25033 8.96989 3.25033C7.481 3.25033 6.21989 3.76699 5.18656 4.80033C4.15322 5.83366 3.63656 7.09477 3.63656 8.58366C3.63656 10.0725 4.15322 11.3337 5.18656 12.367C6.21989 13.4003 7.481 13.917 8.96989 13.917Z" fill="#D9D9D9"/>
</g>
</svg>
