<svg width="25" height="25" viewBox="0 0 25 25" fill="none" xmlns="http://www.w3.org/2000/svg">
<g clip-path="url(#clip0_1262_4179)">
<path d="M18.4135 5.69434V19.6943C18.4135 20.7989 17.5616 21.6943 16.5106 21.6943H12.9427C12.68 21.6943 12.4671 21.4705 12.4671 21.1943V15.1943H14.6934C14.9195 15.1944 15.1144 15.0271 15.1596 14.7943L15.5021 12.9943C15.5163 12.9216 15.4989 12.846 15.4549 12.7881C15.4107 12.7302 15.3443 12.6958 15.2738 12.6943H12.4671V9.44434C12.4671 9.30627 12.5736 9.19433 12.7049 9.19433H15.0835C15.3463 9.19433 15.5592 8.97048 15.5592 8.69434V7.19434C15.5592 6.9182 15.3463 6.69434 15.0835 6.69434H12.7049C11.1285 6.69434 9.85056 8.03748 9.85056 9.69434V12.6943H8.6803C8.41756 12.6943 8.20458 12.9181 8.20458 13.1944V14.6944C8.20458 14.9705 8.41756 15.1943 8.6803 15.1943H9.85056V21.1943C9.85056 21.4705 9.63763 21.6943 9.3748 21.6943H3.19048C2.13954 21.6943 1.2876 20.7989 1.2876 19.6943V5.69434C1.2876 4.58976 2.13954 3.69434 3.19048 3.69434H16.5106C17.5616 3.69434 18.4135 4.58976 18.4135 5.69434Z" fill="white"/>
</g>
<defs>
<clipPath id="clip0_1262_4179">
<rect width="24" height="29.375" fill="white" transform="translate(0.484863 0.694336)"/>
</clipPath>
</defs>
</svg>
