<svg width="25" height="25" viewBox="0 0 25 25" fill="none" xmlns="http://www.w3.org/2000/svg"><g clip-path="url(#clip0_1262_4170)"><g clip-path="url(#clip1_1262_4170)"><path fill-rule="evenodd" clip-rule="evenodd" d="M8.71229 3.45996H16.3238C18.9511 3.45996 21.081 5.69854 21.081 8.45996V16.4599C21.081 19.2214 18.9511 21.46 16.3238 21.46H8.71229C6.08495 21.46 3.95508 19.2214 3.95508 16.4599V8.45996C3.95508 5.69854 6.08495 3.45996 8.71229 3.45996ZM17.0417 8.7084C17.5671 8.7084 17.9931 8.26068 17.9931 7.70839C17.9931 7.15612 17.5671 6.7084 17.0417 6.7084C16.5162 6.7084 16.0902 7.15612 16.0902 7.70839C16.0902 8.26068 16.5162 8.7084 17.0417 8.7084ZM12.5191 7.95997C10.1544 7.95997 8.23755 9.97469 8.23755 12.46C8.23755 14.9453 10.1544 16.96 12.5191 16.96C14.8836 16.96 16.8006 14.9453 16.8006 12.46C16.8031 11.2657 16.3528 10.1195 15.5493 9.27505C14.7458 8.43057 13.6553 7.95731 12.5191 7.95997ZM9.90246 12.4584C9.90246 13.9772 11.0739 15.2084 12.519 15.2084C13.9639 15.2084 15.1354 13.9772 15.1354 12.4584C15.1354 10.9396 13.9639 9.7084 12.519 9.7084C11.0739 9.7084 9.90246 10.9396 9.90246 12.4584Z" fill="white" /></g></g><defs><clipPath id="clip0_1262_4170"><rect width="24" height="24" fill="white" transform="translate(0.266113 0.694336)" /></clipPath><clipPath id="clip1_1262_4170"><rect width="30.875" height="29.375" fill="white" transform="translate(0.266113 0.694336)" /></clipPath></defs></svg>