<svg width="25" height="25" viewBox="0 0 25 25" fill="none" xmlns="http://www.w3.org/2000/svg">
<g clip-path="url(#clip0_1262_4187)">
<path fill-rule="evenodd" clip-rule="evenodd" d="M18.7643 20.2929C18.7643 21.2793 18.0754 22.1048 17.1525 22.3143V22.3614H16.8282C16.7829 22.3643 16.7374 22.3658 16.6914 22.3658H12.8047C12.7817 22.3658 12.7589 22.3643 12.7366 22.3614H8.98625C8.96395 22.3643 8.94121 22.3658 8.91811 22.3658H2.18128C1.03645 22.3658 0.108398 21.4378 0.108398 20.2929V5.78284C0.108398 4.63802 1.03645 3.70996 2.18128 3.70996H16.6914C17.8362 3.70996 18.7643 4.63802 18.7643 5.78284V20.2929ZM13.5573 8.98962C13.6437 9.04601 13.7329 9.09804 13.8246 9.14549C14.4208 9.44335 15.0034 9.53404 15.2902 9.50286V11.8222C15.2902 11.8222 14.4716 11.7882 13.8639 11.6267C13.017 11.3997 12.4741 11.0511 12.4741 11.0511C12.4741 11.0511 12.0973 10.8014 12.0691 10.7844V15.5772C12.0691 15.8436 11.9987 16.5103 11.7876 17.0659C11.6027 17.5412 11.3382 17.9813 11.0057 18.3676C11.0057 18.3676 10.4852 19.0141 9.57097 19.4479C8.80892 19.8097 8.13101 19.8296 7.86175 19.8375C7.83976 19.8381 7.82049 19.8387 7.80412 19.8393C7.80412 19.8393 6.5524 19.8898 5.42344 19.1212L5.41778 19.1155V19.1212C5.0361 18.8544 4.69573 18.5327 4.40763 18.1664C4.05036 17.7098 3.83114 17.1683 3.77456 17.0096V17.0039C3.6846 16.7344 3.49593 16.0823 3.52421 15.4528C3.56919 14.3439 3.94061 13.6606 4.03905 13.4906C4.29774 13.0243 4.63566 12.6068 5.0376 12.2569C5.49633 11.8717 6.02976 11.5858 6.60427 11.4175C7.17877 11.2491 7.78188 11.2018 8.37554 11.2786L8.3727 13.6575C8.17715 13.5937 7.97274 13.5613 7.76707 13.5614C6.68054 13.5614 5.79994 14.449 5.79994 15.5452C5.79994 16.6415 6.68054 17.5291 7.76707 17.5291C8.10536 17.5295 8.43792 17.4416 8.73196 17.274C9.01409 17.1135 9.2525 16.8859 9.42622 16.6112C9.59995 16.3368 9.70366 16.0236 9.72825 15.6995V15.6944C9.72967 15.6875 9.72965 15.6807 9.72965 15.6742C9.72994 15.669 9.73028 15.6641 9.7306 15.6593C9.73128 15.6493 9.73192 15.6399 9.73192 15.6299C9.73702 15.5115 9.73702 15.3916 9.73702 15.2704V6.2361H12.0691C12.0653 6.2361 12.0411 6.45999 12.0999 6.80601H12.097C12.1674 7.2229 12.3587 7.81832 12.8708 8.40525C13.0753 8.62691 13.3058 8.82311 13.5573 8.98962Z" fill="white"/>
</g>
<defs>
<clipPath id="clip0_1262_4187">
<rect width="24" height="30.875" fill="white" transform="translate(0.703613 0.709961)"/>
</clipPath>
</defs>
</svg>
