<svg width="25" height="25" viewBox="0 0 25 25" fill="none" xmlns="http://www.w3.org/2000/svg">
<g clip-path="url(#clip0_1262_4174)">
<g clip-path="url(#clip1_1262_4174)">
<path d="M22.2185 7.15812C21.7276 7.84646 21.1341 8.44692 20.4611 8.93629C20.4611 9.1161 20.4611 9.29592 20.4611 9.48572C20.4664 12.7511 19.2254 15.8823 17.0162 18.1772C14.807 20.4719 11.8144 21.7387 8.70936 21.6932C6.91424 21.6994 5.14211 21.2686 3.53179 20.4345C3.44497 20.3945 3.38896 20.3043 3.38928 20.2047V20.0948C3.38928 19.9514 3.49987 19.8351 3.6363 19.8351C5.40085 19.7739 7.10245 19.1309 8.50035 17.9969C6.90319 17.9631 5.46615 16.9687 4.80481 15.4396C4.7714 15.3561 4.78181 15.2602 4.83225 15.1868C4.8827 15.1133 4.96591 15.0729 5.05181 15.08C5.53722 15.1312 6.02749 15.0838 6.49583 14.9401C4.73269 14.5555 3.40788 13.0169 3.21829 11.134C3.21155 11.0437 3.25006 10.9562 3.31991 10.9032C3.38976 10.8501 3.48086 10.8392 3.56029 10.8743C4.03344 11.0937 4.5442 11.2093 5.06131 11.2139C3.51638 10.1482 2.84907 8.12106 3.43679 6.27902C3.49745 6.10003 3.6432 5.9678 3.82048 5.93093C3.99775 5.89406 4.1804 5.95797 4.3013 6.0992C6.38608 8.43128 9.25062 9.82095 12.2909 9.97521C12.213 9.64861 12.1747 9.31296 12.1769 8.97625C12.2053 7.21069 13.2448 5.6379 14.8085 4.99419C16.3722 4.35049 18.1507 4.76327 19.3114 6.03927C20.1028 5.88084 20.8677 5.6015 21.582 5.21012C21.6343 5.17579 21.7007 5.17579 21.753 5.21012C21.7857 5.26514 21.7857 5.33492 21.753 5.38994C21.407 6.22268 20.8225 6.92113 20.081 7.38788C20.7304 7.30873 21.3683 7.14774 21.981 6.90837C22.0326 6.87146 22.1005 6.87146 22.1521 6.90837C22.1952 6.92916 22.2275 6.9689 22.2403 7.01702C22.2532 7.06514 22.2452 7.11675 22.2185 7.15812Z" fill="white"/>
</g>
</g>
<defs>
<clipPath id="clip0_1262_4174">
<rect width="24" height="24" fill="white" transform="translate(0.875488 0.694336)"/>
</clipPath>
<clipPath id="clip1_1262_4174">
<rect width="30.875" height="29.375" fill="white" transform="translate(0.875488 0.694336)"/>
</clipPath>
</defs>
</svg>
