<svg width="25" height="25" viewBox="0 0 25 25" fill="none" xmlns="http://www.w3.org/2000/svg">
<g clip-path="url(#clip0_1262_4183)">
<path fill-rule="evenodd" clip-rule="evenodd" d="M18.058 5.03426L19.4471 5.18426C21.0917 5.37963 22.3266 6.85498 22.3015 8.59426V16.7943C22.3266 18.5336 21.0917 20.0088 19.4471 20.2043L18.1151 20.3543C13.9588 20.8042 9.7695 20.8042 5.61318 20.3543L4.22409 20.2043C2.57953 20.0088 1.3446 18.5336 1.36976 16.7943V8.59426C1.3446 6.85498 2.57953 5.37963 4.22409 5.18426L5.5561 5.03426C9.71242 4.58428 13.9018 4.58428 18.058 5.03426ZM10.9888 15.9142L14.6899 13.3143H14.747C14.9464 13.1777 15.0668 12.9444 15.0668 12.6942C15.0668 12.4441 14.9464 12.2108 14.747 12.0742L11.0459 9.47425C10.8274 9.319 10.5452 9.3031 10.3122 9.43291C10.0791 9.56271 9.9332 9.81703 9.93272 10.0942V15.2943C9.945 15.5523 10.0828 15.7856 10.2974 15.9116C10.5121 16.0376 10.7733 16.0386 10.9888 15.9142Z" fill="white"/>
</g>
<defs>
<clipPath id="clip0_1262_4183">
<rect width="30.875" height="24" fill="white" transform="translate(0.0942383 0.694336)"/>
</clipPath>
</defs>
</svg>
